<?xml version="1.0" encoding="UTF-8" standalone="no"?>
<!-- Created with Inkscape (http://www.inkscape.org/) -->
<svg id="svg1901" xmlns:rdf="http://www.w3.org/1999/02/22-rdf-syntax-ns#" xmlns="http://www.w3.org/2000/svg" xmlns:osb="http://www.openswatchbook.org/uri/2009/osb" height="300.01" viewBox="0 0 100.00112 300.00769" width="100" version="1.1" xmlns:cc="http://creativecommons.org/ns#" xmlns:xlink="http://www.w3.org/1999/xlink" xmlns:dc="http://purl.org/dc/elements/1.1/">
 <defs id="defs1903">
  <linearGradient id="linearGradient12490" osb:paint="solid" gradientTransform="matrix(67.595542,0,0,481.59061,84868.851,-2567002.5)">
   <stop id="stop12492" stop-color="#f0f0f0" offset="0"/>
  </linearGradient>
  <linearGradient id="linearGradient13405" y2="533.81" gradientUnits="userSpaceOnUse" x2="-59.025" gradientTransform="matrix(1.6753203,0,0,1.7141991,198.87706,-765.05278)" y1="533.81" x1="-118.7">
   <stop id="stop12610" stop-color="#e5003c" stop-opacity="0.94117647" offset="0"/>
  </linearGradient>
 </defs>
 <metadata id="metadata1906">
  <rdf:RDF>
   <cc:Work rdf:about="">
    <dc:format>image/svg+xml</dc:format>
    <dc:type rdf:resource="http://purl.org/dc/dcmitype/StillImage"/>
    <dc:title/>
    <cc:license rdf:resource=""/>
   </cc:Work>
  </rdf:RDF>
 </metadata>
 <g id="g13197" transform="translate(-200.0007,200.00513)">
  <path id="path12454" d="m299.15,50.001a49.153,49.154,0,0,1,-98.306,0,49.153,49.154,0,1,1,98.306,0z" stroke="#e5003c" stroke-miterlimit="4" stroke-dasharray="none" stroke-width="1.69499993" fill="#e5003c"/>
  <g id="g12460" style="enable-background:new;" fill="url(#linearGradient12490)" stroke="url(#linearGradient12490)" transform="matrix(3.6006383,0,0,3.6006383,-1893.7931,-259.89319)">
   <g id="g12462" fill="url(#linearGradient12490)" stroke="url(#linearGradient12490)" transform="translate(0,2.988066e-5)">
    <g id="g12468" stroke-linejoin="miter" stroke-linecap="butt" stroke-dasharray="none" stroke-miterlimit="4">
     <path id="path12470" stroke-width="0.91400635" d="m591.1,90.573-0.079,1.9818,1.5842-1.0226z"/>
     <path id="path12472" stroke-width="0.91400635" d="m591.98,88.942,4.603-7.585,1.8351,1.1721-4.603,7.585z"/>
     <path id="path12474" stroke-width="0.99230665" d="m597.16,79.621,2.5659,1.6224"/>
    </g>
   </g>
  </g>
 </g>
 <g id="g11575" stroke-dasharray="none" stroke-miterlimit="4" transform="translate(539.81597,-466.46472)">
  <path id="path6552" d="m-59.525,533.81a29.34,28.674,0,1,1,-58.679,0,29.34,28.674,0,1,1,58.679,0z" transform="matrix(1.6753203,0,0,1.7141991,-340.93891,-398.59062)" stroke="#e5003c" stroke-width="1.00020754" fill="#e5003c"/>
  <g id="g12446" stroke-linejoin="round" stroke-dashoffset="0" transform="matrix(0.90927423,0,0,0.90927423,-222.45502,39.816645)" stroke="url(#linearGradient12490)" fill="none">
   <path id="path4456" stroke-width="3" d="m-289.98,543.88-21.552-0.00003,0-9.4512"/>
   <path id="path4458" stroke-width="3" d="m-311.53,518.38,0-9.4512,0,0,19.354,0"/>
   <path id="path4460" stroke-width="3" d="m-280.99,520.8,0.00003,17.803"/>
   <rect id="rect4462" height="15.925" width="21.963" y="517.84" x="-323.98" stroke-width="5"/>
   <rect id="rect4464" height="18.109" width="23.856" y="500.38" x="-292.92" stroke-width="6.1439"/>
   <rect id="rect4466" height="10.547" width="16.73" y="538.57" x="-289.36" stroke-width="4"/>
  </g>
 </g>
 <g id="g13439">
  <path id="path6521" d="m99.154,150a49.153,49.154,0,0,1,-98.306,0,49.153,49.154,0,1,1,98.306,0z" stroke="#e5003c" stroke-dasharray="none" stroke-miterlimit="4" stroke-width="1.69499993" fill="url(#linearGradient13405)"/>
  <g id="g13424">
   <rect id="rect4597" stroke-linejoin="miter" stroke-dasharray="none" height="21.043" width="16.309" stroke="url(#linearGradient12490)" stroke-linecap="butt" stroke-miterlimit="4" y="139.44" x="42.037" stroke-width="2.3963" fill="none"/>
   <path id="path4599" d="m31.206,139.57a3.9137,3.9138,0,1,1,-7.8274,0,3.9137,3.9138,0,1,1,7.8274,0z" stroke="url(#linearGradient12490)" stroke-width="1.75771523" fill="url(#linearGradient12490)"/>
   <path id="path4601" d="m54.102,125.1a3.9137,3.9138,0,1,1,-7.8274,0,3.9137,3.9138,0,1,1,7.8274,0z" stroke="url(#linearGradient12490)" stroke-width="1.75771523" fill="url(#linearGradient12490)"/>
   <path id="path4603" d="m76.621,139.57a3.9137,3.9138,0,1,1,-7.8274,0,3.9137,3.9138,0,1,1,7.8274,0z" stroke="url(#linearGradient12490)" stroke-width="1.75771523" fill="url(#linearGradient12490)"/>
   <path id="path5406" stroke-linejoin="miter" d="m30.897,140.35,10.456,3.0151,0,0" stroke="url(#linearGradient12490)" stroke-linecap="butt" stroke-miterlimit="4" stroke-dasharray="none" stroke-width="2.39628124" fill="none"/>
   <path id="path6523" stroke-linejoin="miter" d="m68.517,140.35-10.456,3.0151,0,0" stroke="url(#linearGradient12490)" stroke-linecap="butt" stroke-miterlimit="4" stroke-dasharray="none" stroke-width="2.39628124" fill="none"/>
   <path id="path6525" d="m31.206,160.45a3.9137,3.9138,0,1,0,-7.8274,0,3.9137,3.9138,0,1,0,7.8274,0z" stroke="url(#linearGradient12490)" stroke-width="1.75771523" fill="url(#linearGradient12490)"/>
   <path id="path6527" d="m54.102,174.92a3.9137,3.9138,0,1,0,-7.8274,0,3.9137,3.9138,0,1,0,7.8274,0z" stroke="url(#linearGradient12490)" stroke-width="1.75771523" fill="url(#linearGradient12490)"/>
   <path id="path6529" d="m76.621,160.45a3.9137,3.9138,0,1,0,-7.8274,0,3.9137,3.9138,0,1,0,7.8274,0z" stroke="url(#linearGradient12490)" stroke-width="1.75771523" fill="url(#linearGradient12490)"/>
   <path id="path6531" stroke-linejoin="miter" d="m30.897,159.66,10.456-3.0151,0,0" stroke="url(#linearGradient12490)" stroke-linecap="butt" stroke-miterlimit="4" stroke-dasharray="none" stroke-width="2.39628124" fill="none"/>
   <path id="path6535" stroke-linejoin="miter" d="m68.517,159.66-10.456-3.0151,0,0" stroke="url(#linearGradient12490)" stroke-linecap="butt" stroke-miterlimit="4" stroke-dasharray="none" stroke-width="2.39628124" fill="none"/>
   <path id="path13420" stroke-linejoin="miter" d="m50.071,128.91,0,10.227" stroke="#f0f0f0" stroke-linecap="butt" stroke-miterlimit="4" stroke-dasharray="none" stroke-width="2.39599999999999991" fill="none"/>
   <path id="path13422" stroke-linejoin="miter" d="m50.071,160.87,0,10.227" stroke="#f0f0f0" stroke-linecap="butt" stroke-miterlimit="4" stroke-dasharray="none" stroke-width="2.39599991" fill="none"/>
  </g>
 </g>
</svg>
