<?xml version="1.0" encoding="UTF-8" standalone="no"?>
<svg id="svg4016" xmlns="http://www.w3.org/2000/svg" height="313" width="561" version="1.1">
 <g id="layer1" stroke-linejoin="miter" transform="translate(-97.797226,-190.31112)" stroke="#000" stroke-linecap="butt">
  <g id="g4966" stroke-width="1px" fill="none" transform="matrix(0.2097152,0,0,0.2097152,-555.62744,797.88014)">
   <path id="path4933" d="m4597.3-2586.1c66.001-50.896,163.15-77.996,236.88-116.44,73.569-40.776,135.42-68.23,225.56-115.59,76.796-29.663,137.21-63.249,175.6-78.456,41.491,10.121,19.247,66.684,30.227,130.7,9.4406,145.7,37.708,290.17,29.027,436.82-7.9021,80.37,100.6,89.698,155.6,119.29,75.344,32.279,146.2,62.009,219.47,96.976,58.55,39.21,33.788,15.83,90.277,57.317,49.474,55.824-11.073,123.93-62.501,155.02-70.587,71.833-163.03,111.41-226.53,190.8-65.982,61.147-133.13,119.56-195.08,183.72-53.695,39.92-93.926,95.064-160.99,106.52-44.396,2.5215-67.927-40.707-104.99-58.055-52.231-44.98-53.541-47.361-103.7-97.592-54.041-59.125-106.03-100.73-162.32-149.02-16.882-20.241-75.448-67.95-74.72-116.91,0.063-4.205,2.4787-6.0951,1.2305-3.7605-54.379-17.04-46.8-146.06-58.461-223.82,0.3913-115.63-22.382-214.3-26.136-320.27-8.6412-76.193-25.457-142,11.563-197.24z"/>
   <path id="path4935" d="m4696.7-1868.6c76.414-66.492,139.33-107.82,222.49-165.23,66.818-57.588,136.27-113.4,216.94-150.41,45.523-26.701,88.973-56.764,134.54-83.394"/>
   <path id="path4937" d="m4623.4-2525.2c13.912,105.99,20.624,126.65,25.751,229.79,9.7097,134.99,12.701,245.92,19.827,380.73,64.891-57.053,15.45-9.1927,65.099-57.672,100.93-79.32,200-143.07,311.74-224.12,81.345-40.212,151.48-92.133,212.22-120.36-5.5136-31.538-7.2152-45.313-8.9669-125.09-5.0341-106.11-10.068-180.79-15.102-232.62-5.8367-133.45,0.7586-52.476-12.777-159.14-23.194,29.468-39.233,19.65-103.74,60.083-66.777,31.516-64.868,38.33-142.41,70.543-101.43,38.01-152.74,74.069-264.36,135.27-14.092,4.3942-33.434,13.622-87.294,42.596z"/>
   <path id="path4943" d="m5760-2057.6c29.709,22.394,36.17,59.643,11.746,98.816-55.885,60.931-85.49,80.583-137.8,127.49-47.01,35.169-49.286,33.589-94.352,77.619-51.975,38.757-106.44,95.114-159.29,146.12-60.623,56.974-87.313,84.572-133.52,126.2-37.404,32.208-45.167,39.376-94.737,63.759-23.249,11.846-62.614,15.627-78.477-0.7172-29.738-19.859-44.383-35.326-70.4-54.558-50.274-41.577-68.735-65.98-114.35-108.57-50.514-47.739-78.015-72.274-129.8-116.78-39.956-39.101-94.489-86.803-97.589-142.77-33.239-23.343-35.735-53.158-40.754-86.21-4.9273-32.45-7.1944-70.504-11.935-110.55-3.3238-58.475-9.0228-120.36-15.209-176.98-5.5824-58.974-7.1666-117.55-15.673-174.09-0.6144-32.032-10.343-66.181-10.1-99.298,0.2472-33.664-3.4543-64.535,18.708-91.106,12.799-9.2366,7.8029-5.0015,13.203-9.2139"/>
  </g>
  <g id="g4960" stroke-width="1px" fill="none" transform="matrix(0.2097152,0,0,0.2097152,-562.81771,795.48334)">
   <path id="path4952" d="m4340-2574.7c-66.001-50.896-163.15-77.996-236.88-116.44-73.569-40.776-135.42-68.23-225.56-115.59-76.796-29.663-137.21-63.249-175.6-78.456-41.491,10.121-19.247,66.684-30.227,130.7-9.4406,145.7-37.708,290.17-29.027,436.82,7.9021,80.37-100.6,89.698-155.6,119.29-75.344,32.279-101.91,40.58-219.47,96.976-58.55,39.21-33.788,15.83-90.277,57.317-49.474,55.824,11.073,123.93,62.501,155.02,70.587,71.833,163.03,111.41,226.53,190.8,65.982,61.147,133.13,119.56,195.08,183.72,53.695,39.92,93.926,95.064,160.99,106.52,44.396,2.5215,67.927-40.707,104.99-58.055,52.231-44.98,53.541-47.361,103.7-97.592,54.041-59.125,106.03-100.73,162.32-149.02,16.882-20.241,75.448-67.95,74.72-116.91-0.063-4.205-2.4787-6.0951-1.2305-3.7605,54.379-17.04,46.8-146.06,58.461-223.82-0.3913-115.63,22.382-214.3,26.136-320.27,8.6412-76.193,25.457-142-11.563-197.24z"/>
   <path id="path4954" d="m4240.5-1857.1c-76.414-66.492-139.33-107.82-222.49-165.23-66.818-57.588-136.27-113.4-216.94-150.41-45.523-26.701-88.973-56.764-134.54-83.394"/>
   <path id="path4956" d="m4313.8-2513.8c-13.912,105.99-20.624,126.65-25.751,229.79-9.7097,134.99-12.701,245.92-19.827,380.73-64.891-57.053-15.45-9.1927-65.099-57.672-100.93-79.32-200-143.07-311.74-224.12-81.345-40.212-151.48-92.133-212.22-120.36,5.5136-31.538,7.2152-45.313,8.9669-125.09,5.0341-106.11,10.068-180.79,15.102-232.62,5.8367-133.45-0.7586-52.476,12.777-159.14,23.194,29.468,39.233,19.65,103.74,60.083,66.777,31.516,64.868,38.33,142.41,70.543,101.43,38.01,152.74,74.069,264.36,135.27,14.092,4.3942,33.434,13.622,87.294,42.596z"/>
   <path id="path4958" d="m3177.3-2046.2c-29.709,22.394-36.17,59.643-11.746,98.816,55.885,60.931,85.49,80.583,137.8,127.49,47.01,35.169,49.286,33.589,94.352,77.619,51.975,38.757,106.44,95.114,159.29,146.12,60.623,56.974,87.313,84.572,133.52,126.2,37.404,32.208,45.167,39.376,94.737,63.759,23.249,11.846,62.614,15.627,78.477-0.7172,29.738-19.859,44.383-35.326,70.4-54.558,50.274-41.577,68.735-65.98,114.35-108.57,50.514-47.739,78.015-72.274,129.8-116.78,39.956-39.101,94.489-86.803,97.589-142.77,33.239-23.343,35.735-53.158,40.754-86.21,4.9273-32.45,7.1944-70.504,11.935-110.55,3.3238-58.475,9.0228-120.36,15.209-176.98,5.5824-58.974,7.1666-117.55,15.673-174.09,0.6144-32.032,10.343-66.181,10.1-99.298-0.2472-33.664,3.4543-64.535-18.708-91.106-12.799-9.2366-7.8029-5.0015-13.203-9.2139"/>
  </g>

  <path id="path3189" d="m231.82,248.99c-0.26278,1.7776-0.60078,4.1929-1.0464,5.929,1.5532,0.74457,2.1087,0.633,3.0805,1.4138,2.7207,1.36,5.5944,3.3513,8.3584,4.6222,3.2351,1.3891,6.2606,2.4606,9.3358,4.2006,0.065-1.793,0.13947-4.1285,0.38105-5.1292-0.005-1.9225,0.2201-1.6664,0.23878-4.0202-0.0626-1.2106,0.36665-0.69817,0.46797-2.9239-2.2056-0.2789-5.1809-2.5165-7.1453-3.7008-2.4513-1.0996-5.0177-2.2546-7.5592-3.1196-1.437-0.98869-1.9039-1.0185-3.2974-1.3889-0.47238-0.38172-1.0958-0.57986-2.4411-1.1215-0.23187,1.708-0.15146,3.0085-0.37308,5.2384z" stroke-width="0.25375542px" opacity='0' fill="#e5003c">
    <animate id="client1first" attributeType="XML" attributeName="opacity" values="1" begin="1s;client2last.end+2s" dur="1s" fill="freeze" />
    <animate attributeType="XML" attributeName="opacity" values="1;0" dur="300ms" begin="client1first.begin+6s" fill="freeze" />
  </path>
  <g id="g3160" stroke-width="0.25375542px" opacity='0'>
   <path id="path3187" fill="none" d="m278.5,271.02c0.78499,1.4921,0.84729,1.5604,1.5599,3.026-1.1489,0.66085-2.0598,0.83253-3.0536,1.2522"/>
   <path id="path3191" fill="#e5003c" d="m281.01,273.32c-0.26282,1.7777-0.6008,4.1929-1.0464,5.929,1.5532,0.74457,2.1087,0.633,3.0805,1.4138,2.7207,1.36,5.5944,3.3513,8.3584,4.6222,3.2351,1.3891,6.2606,2.4606,9.3357,4.2006,0.0651-1.793,0.13951-4.1284,0.38108-5.1292-0.005-1.9225,0.22007-1.6664,0.23878-4.0202-0.0626-1.2106,0.36667-0.69812,0.46798-2.9238-2.2056-0.27892-5.1809-2.5165-7.1453-3.7008-2.4513-1.0996-5.0177-2.2546-7.5592-3.1196-1.437-0.9887-1.9039-1.0185-3.2974-1.3889-0.47238-0.38172-1.0958-0.57987-2.4411-1.1215-0.23184,1.708-0.15148,3.0085-0.37305,5.2384z"/>
   <path id="path3193" fill="none" d="m251.99,259.37c2.0716,1.3822,4.037,2.2924,5.7717,3.259,2.8566,1.384,5.764,2.6545,8.693,3.8826,2.4069,0.91585,4.599,2.4848,6.7743,3.6825,2.7393,1.5816,6.6987,4.0328,6.5836,3.6762"/>
   <animate id="client1-second" attributeType="XML" attributeName="opacity" values="1" begin="client1first.begin+2s"  fill="freeze" />
   <animate attributeType="XML" attributeName="opacity" values="1;0" dur="300ms" begin="client1first.begin+6s" fill="freeze" />
  </g>
  <g id="g3165" stroke-width="0.25375542px" opacity='0'>
   <path id="path3195" fill="#e5003c" d="m272.31,317.9c-0.26277,1.7776-0.60077,4.1929-1.0464,5.929,1.5532,0.74458,2.1087,0.633,3.0805,1.4138,2.7207,1.36,5.5944,3.3513,8.3584,4.6222,3.2351,1.3891,6.2606,2.4606,9.3358,4.2007,0.0651-1.793,0.13949-4.1285,0.38106-5.1292-0.005-1.9225,0.22009-1.6664,0.23878-4.0202-0.0626-1.2106,0.36664-0.69815,0.46798-2.9239-2.2056-0.2789-5.1809-2.5165-7.1453-3.7008-2.4513-1.0996-5.0178-2.2546-7.5592-3.1196-1.437-0.9887-1.9039-1.0185-3.2974-1.3889-0.47241-0.38172-1.0958-0.57984-2.4411-1.1214-0.23186,1.7079-0.15148,3.0084-0.37311,5.2384z"/>
   <path id="path3197" fill="none" d="m286.38,314.9c-1.4921,0.78499-1.5604,0.84729-3.026,1.5599-0.66087-1.1488-0.83254-2.0598-1.2523-3.0536"/>
   <path id="path3199" fill="none" d="m288.42,283.48c-0.44117,3.2808-0.62201,6.6058-1.012,9.8942-0.40019,2.7149-1.0065,5.4109-1.4235,8.1121-0.0238,1.6642-0.76758,3.2263-0.67761,4.9039-0.10805,1.7971-0.72644,3.4865-0.89668,5.2756-0.71366,1.3629-0.47882,2.8792-0.90781,4.3097l-0.067,0.22075"/>
   <animate id="client1-last" attributeType="XML" attributeName="opacity" values="1" begin="client1first.begin+4s" fill="remove" />
   <animate attributeType="XML" attributeName="opacity" values="1;0" dur="300ms" begin="client1first.begin+6s" fill="freeze" />
  </g>


  <path id="path3205" d="m462.5,276.31c0.26282,1.7776,0.60079,4.1929,1.0464,5.929-1.5532,0.74457-2.1087,0.633-3.0805,1.4138-2.7207,1.36-5.5944,3.3513-8.3584,4.6222-3.2351,1.3891-6.2606,2.4606-9.3358,4.2007-0.0651-1.793-0.13951-4.1284-0.38107-5.1292,0.005-1.9225-0.22007-1.6664-0.23878-4.0202,0.0626-1.2106-0.36667-0.69811-0.46798-2.9238,2.2056-0.2789,5.1809-2.5165,7.1453-3.7007,2.4513-1.0996,5.0177-2.2546,7.5592-3.1196,1.437-0.9887,1.9039-1.0185,3.2974-1.3889,0.47238-0.38172,1.0958-0.57986,2.4411-1.1214,0.23184,1.7079,0.15148,3.0084,0.37306,5.2384z" stroke-width="0.25375542px" opacity='0' fill="#e5003c">
   <!-- <set id="set3632" to="inline" begin="1.5s" attributeName="display" attributeType="XML"/> -->
   <animate id="client2first" attributeType="XML" attributeName="opacity" values="1" begin="client1first.begin+0.5s" dur="7.5s" fill="remove" />
   <animate attributeType="XML" attributeName="opacity" values="1;0" dur="300ms" begin="client1first.begin+6s" fill="freeze" />
  </path>
  <g id="g3170" stroke-width="0.25375542px" opacity='0'>
   <path id="path3201" fill="none" d="m487.68,261.52c1.4921,0.11537,1.8782,0.74153,3.4498,1.0882-0.45135,1.6785-0.96817,2.3246-1.4488,3.3184"/>
   <path id="path3203" fill="#e5003c" d="m511.69,251.99c0.26277,1.7777,0.60076,4.1929,1.0464,5.929-1.5532,0.74458-2.1087,0.633-3.0805,1.4138-2.7206,1.36-5.5944,3.3513-8.3584,4.6222-3.2351,1.3891-6.2606,2.4606-9.3358,4.2007-0.065-1.793-0.13945-4.1284-0.38105-5.1292,0.005-1.9225-0.22011-1.6664-0.23879-4.0202,0.0626-1.2106-0.36664-0.69817-0.46796-2.9239,2.2056-0.27889,5.1809-2.5165,7.1453-3.7007,2.4513-1.0996,5.0177-2.2546,7.5592-3.1196,1.437-0.98868,1.9039-1.0185,3.2974-1.3889,0.47238-0.38172,1.0958-0.57986,2.4411-1.1215,0.23187,1.7079,0.15149,3.0084,0.3731,5.2384z"/>
   <path id="path3207" fill="none" d="m491.04,262.69c-2.0716,1.3822-4.3018,2.3983-6.0365,3.3649-2.8566,1.384-5.764,2.6545-8.693,3.8826-2.4069,0.91584-4.599,2.4848-6.7743,3.6825-2.7393,1.5816-6.6987,4.0328-6.5836,3.6762"/>
   <animate id="client2second" attributeType="XML" attributeName="opacity" values="1" begin="client1first.begin+2.5s" fill="freeze" />
   <animate attributeType="XML" attributeName="opacity" values="1;0" dur="300ms" begin="client1first.begin+6s" fill="freeze" />
  </g>
  <g id="g3175" opacity='0'>
   <path id="path3209" stroke-width="0.25375542px" fill="#e5003c" d="m518.65,298.87c0.26276,1.7776,0.60075,4.1929,1.0464,5.929-1.5532,0.74458-2.1087,0.633-3.0805,1.4138-2.7206,1.36-5.5944,3.3513-8.3584,4.6222-3.2351,1.3891-6.2606,2.4606-9.3358,4.2007-0.065-1.793-0.13949-4.1285-0.38106-5.1292,0.005-1.9225-0.22006-1.6664-0.23878-4.0202,0.0626-1.2106-0.36663-0.69814-0.46795-2.9239,2.2056-0.27888,5.1809-2.5165,7.1453-3.7008,2.4513-1.0996,5.0178-2.2546,7.5592-3.1196,1.437-0.98872,1.9039-1.0185,3.2974-1.389,0.47239-0.38173,1.0958-0.57984,2.4411-1.1214,0.23187,1.7079,0.15147,3.0084,0.37311,5.2384z"/>
   <g id="g3211" stroke-width="1.21000004px" fill="none" transform="matrix(0.2097152,0,0,0.2097152,-443.46222,1063.6332)">
    <path id="path3213" d="m4520.6-3663c7.1149,3.7431,7.4405,4.0402,14.429,7.4381,3.1513-5.4781,3.9699-9.822,5.9713-14.561"/>
    <path id="path3215" d="m4510.9-3812.8c2.1037,15.644,2.966,31.499,4.8255,47.179,1.9082,12.946,4.7994,25.801,6.7876,38.682,0.1137,7.9355,3.6601,15.384,3.2311,23.383,0.5152,8.5691,3.4639,16.625,4.2757,25.156,3.403,6.4989,2.2832,13.729,4.3288,20.55l0.3191,1.0526"/>
   </g>
   <!-- <set id="client2last" to="inline" begin="3.5s" attributeName="display" attributeType="XML"/> -->
   <animate id="client2last" attributeType="XML" attributeName="opacity" values="1" begin="client1first.begin+4.5s" dur="2s" fill="freeze" />
   <animate attributeType="XML" attributeName="opacity" values="1;0" dur="300ms" begin="client1first.begin+6s" fill="freeze" />
  </g>
 </g>
</svg>
