<?xml version="1.0" encoding="UTF-8" standalone="no"?>
<svg
   xmlns:dc="http://purl.org/dc/elements/1.1/"
   xmlns:cc="http://creativecommons.org/ns#"
   xmlns:rdf="http://www.w3.org/1999/02/22-rdf-syntax-ns#"
   xmlns:svg="http://www.w3.org/2000/svg"
   xmlns="http://www.w3.org/2000/svg"
   width="1264.2186"
   height="744.33167"
   viewBox="0 0 1264.2186 744.33167"
   id="svg2"
   version="1.1">
  <defs
     id="defs4" />
  <metadata
     id="metadata7">
    <rdf:RDF>
      <cc:Work
         rdf:about="">
        <dc:format>image/svg+xml</dc:format>
        <dc:type
           rdf:resource="http://purl.org/dc/dcmitype/StillImage" />
        <dc:title></dc:title>
      </cc:Work>
    </rdf:RDF>
  </metadata>
  <rect
     y="-710.32196"
     x="-1261.3046"
     height="670.11853"
     width="19.684689"
     id="rect5182"
     style="opacity:1;fill:#d2d2d4;fill-opacity:1;stroke:none;stroke-width:7.48899984;stroke-linecap:round;stroke-linejoin:round;stroke-miterlimit:4;stroke-dasharray:none;stroke-dashoffset:0;stroke-opacity:1"
     transform="scale(-1,-1)" />
  <rect
     transform="matrix(0,1,-1,0,0,0)"
     style="opacity:1;fill:#d2d2d4;fill-opacity:1;stroke:none;stroke-width:7.48899984;stroke-linecap:round;stroke-linejoin:round;stroke-miterlimit:4;stroke-dasharray:none;stroke-dashoffset:0;stroke-opacity:1"
     id="rect5180"
     width="19.755518"
     height="1191.1183"
     x="3.297101"
     y="-1230.2238" />
  <path
     style="fill:#7b7b7b;fill-opacity:1;fill-rule:evenodd;stroke:none;stroke-width:1px;stroke-linecap:butt;stroke-linejoin:miter;stroke-opacity:1"
     d="M 1263.7784,40.9992 C 1265.3324,16.6444 1244.8237,0.9663 1228.0859,0 c -0.086,9.435 0.1015,11.1872 0.178,24.4376 11.0325,0.084 11.2232,4.0884 11.612,16.4289 11.0985,0.1937 12.2156,-0.1568 23.1965,-0.2216 z"
     id="path5164" />
  <rect
     y="36.054058"
     x="2.4703424"
     height="667.99048"
     width="19.684689"
     id="rect5178"
     style="opacity:1;fill:#d2d2d4;fill-opacity:1;stroke:none;stroke-width:7.48899984;stroke-linecap:round;stroke-linejoin:round;stroke-miterlimit:4;stroke-dasharray:none;stroke-dashoffset:0;stroke-opacity:1" />
  <rect
     y="-1227.2611"
     x="721.05603"
     height="1194.1488"
     width="19.755518"
     id="rect5184"
     style="opacity:1;fill:#d2d2d4;fill-opacity:1;stroke:none;stroke-width:7.48899984;stroke-linecap:round;stroke-linejoin:round;stroke-miterlimit:4;stroke-dasharray:none;stroke-dashoffset:0;stroke-opacity:1"
     transform="matrix(0,1,-1,0,0,0)" />
  <path
     style="fill:#7b7b7b;fill-opacity:1;fill-rule:evenodd;stroke:none;stroke-width:1px;stroke-linecap:butt;stroke-linejoin:miter;stroke-opacity:1"
     d="m 0.0852,702.58059 c -1.55404,24.35483 18.4552,40.7848 35.19301,41.75108 -0.62078,-5.5363 -0.30831,-20.47035 -0.0316,-27.3412 -11.0325,-0.0843 -10.87004,-1.93663 -11.25884,-14.27719 -7.21387,-0.19362 -19.63181,-0.19749 -23.90283,-0.13269 z"
     id="path5172" />
  <path
     id="path5176"
     d="m 1225.7957,743.0062 c 24.2675,1.55963 37.4602,-18.52161 38.423,-35.31965 -5.5164,0.62302 -17.2186,0.30943 -24.0648,0.0318 -0.084,11.0722 -1.9297,10.90915 -14.226,11.29935 -0.1929,7.23982 -0.1968,19.70244 -0.1322,23.98884 z"
     style="fill:#7b7b7b;fill-opacity:1;fill-rule:evenodd;stroke:none;stroke-width:1px;stroke-linecap:butt;stroke-linejoin:miter;stroke-opacity:1" />
  <path
     id="path5174"
     d="M 40.51358,1.409 C 17.06935,-0.1506 1.25368,19.9306 0.32352,36.7287 5.65283,36.1057 17.9096,36.4192 24.52356,36.6967 24.60476,25.6245 28.50669,25.7876 40.38585,25.3974 40.57222,18.1575 40.57595,5.6949 40.51358,1.4085 Z"
     style="fill:#7b7b7b;fill-opacity:1;fill-rule:evenodd;stroke:none;stroke-width:1px;stroke-linecap:butt;stroke-linejoin:miter;stroke-opacity:1" />
</svg>
