<svg height="321" width="564" viewBox="71 2 564 321" style="background-color:transparent;" preserveAspectRatio="xMinYMin meet" xmlns:xlink="http://www.w3.org/1999/xlink" xmlns="http://www.w3.org/2000/svg"><g transform="translate(0,0)"><path style="fill:none;stroke:#333333;stroke-width:2;" d="M396,228 C396,308 148,308  148,228"/><polyline style="fill:#ffffff;stroke:#333333;stroke-width:2;fill-opacity:0;" points="160,243 148,228 140,246"/><text style="font-weight:Normal; font-size: 12px; text-anchor: middle; font-family: arial,helvetica; fill: #333333;" y="240" x="163"/><text style="font-weight:Normal; font-size: 12px; text-anchor: start; font-family: arial,helvetica; fill: #333333;" y="288" x="272"/><text style="font-weight:Normal; font-size: 12px; text-anchor: middle; font-family: arial,helvetica; fill: #333333;" y="242" x="382"/></g><g transform="translate(0,0)"><rect style="fill: #ffffff;fill-opacity: 1;stroke-opacity:0;stroke-width: 1;stroke:%stroke%;" rx="4" height="13" width="74" y="270" x="272"/><text style="font-weight:Normal; font-size: 12px; text-anchor: start; font-family: arial,helvetica; fill: #333333;" y="270" x="272"><tspan alignment-baseline="before-edge" x="272">upload sketch</tspan></text></g><g transform="translate(0,0)"><g transform="matrix(1,0,0,1,86,99)"><path style="fill:rgb(153,204,0);stroke:rgb(133,178,0);stroke-width:3.0;" d="m13.974593747481775,20.011507760112895c25.691755703658043,-36.55577119498101 106.7182720672339,-21.512115068648015 110.67527836100018,34.39474633852652c3.94933023888021,55.90477346045332 -39.52592562206788,86.01275638565932 -84.98352265734212,62.356528828998634c-45.44992098038819,-23.63973277756312 -48.46661055061156,-64.34028700882223 -25.691755703658043,-96.75127516752515z"/></g><text style="font-weight:bold; font-size: 12px; text-anchor: middle; font-family: arial,helvetica; fill: #ffffff;" y="165" x="148">HipChat</text></g><g transform="translate(0,0)"><g transform="matrix(1,0,0,1,331,96)"><path style="fill:rgb(255,153,0);stroke:rgb(229,137,0);stroke-width:3.0;" d="m14.533577497381046,20.811968070517413c26.719425931804363,-38.01800204278025 110.98700294992324,-22.372599671393935 115.10228949544017,35.770536192067574c4.107303448435418,58.14096439887145 -41.10696264695059,89.45326664108569 -88.38286356363581,64.85078998215857c-47.26791781960372,-24.58532208866564 -50.405274972636015,-66.91389848917511 -26.719425931804363,-100.62132617422616z"/></g><text style="font-weight:bold; font-size: 12px; text-anchor: middle; font-family: arial,helvetica; fill: #333333;" y="165" x="396">Sketchboard.io</text></g><g transform="translate(0,0)"><path style="fill:none;stroke:#333333;stroke-width:2;" d="M148,97 C148,17 396,12  396,92"/><polyline style="fill:#ffffff;stroke:#333333;stroke-width:2;fill-opacity:0;" points="383,76 396,92 403,73"/><text style="font-weight:Normal; font-size: 12px; text-anchor: middle; font-family: arial,helvetica; fill: #333333;" y="80" x="380"/><text style="font-weight:Normal; font-size: 12px; text-anchor: start; font-family: arial,helvetica; fill: #333333;" y="34" x="272"/><text style="font-weight:Normal; font-size: 12px; text-anchor: middle; font-family: arial,helvetica; fill: #333333;" y="82" x="160"/></g><g transform="translate(0,0)"><rect style="fill: #ffffff;fill-opacity: 1;stroke-opacity:0;stroke-width: 1;stroke:%stroke%;" rx="4" height="13" width="38" y="16" x="272"/><text style="font-weight:Normal; font-size: 12px; text-anchor: start; font-family: arial,helvetica; fill: #333333;" y="16" x="272"><tspan alignment-baseline="before-edge" x="272">/sketch</tspan></text></g><g transform="translate(0,0)"><path style="fill:none;stroke:#333333;stroke-width:2;" d="M463,121 C533,121 535,192  465,192"/><polyline style="fill:#ffffff;stroke:#333333;stroke-width:2;fill-opacity:0;" points="481,181 465,192 482,201"/><text style="font-weight:Normal; font-size: 12px; text-anchor: middle; font-family: arial,helvetica; fill: #333333;" y="176" x="478"/><text style="font-weight:Normal; font-size: 12px; text-anchor: start; font-family: arial,helvetica; fill: #333333;" y="156" x="516"/><text style="font-weight:Normal; font-size: 12px; text-anchor: middle; font-family: arial,helvetica; fill: #333333;" y="135" x="478"/></g><g transform="translate(0,0)"><rect style="fill: #000000;fill-opacity: 0;stroke-opacity:0;stroke-width: 1;stroke:%stroke%;" rx="4" height="51" width="100" y="136" x="520"/><text style="font-weight:Normal; font-size: 12px; text-anchor: start; font-family: arial,helvetica; fill: #333333;" y="157" x="520"><tspan x="520">Edit together</tspan><tspan dy="17" x="520">in real-time</tspan></text></g></svg>